<svg viewBox="575 410.4756 380 85.0488" width="5000" height="1119.0631578947368" xmlns="http://www.w3.org/2000/svg" xmlns:xlink="http://www.w3.org/1999/xlink" preserveAspectRatio="none"><defs></defs><style>.companyName {fill:#000000;fill-opacity:1;}.text {fill:#000000;fill-opacity:1;}</style><g opacity="1" transform="rotate(0 575 483.2914)">
<svg width="380" height="12.233" x="575" y="483.2914" version="1.1" preserveAspectRatio="none" viewBox="0.24 -30.28 1181.64 38.040000000000006">
  <g transform="matrix(1 0 0 1 0 0)" class="text"><path d="M32.28-21.20L35.72-21.20L27.80 0L24.12 0L18-16.08L11.80 0L8.12 0L0.24-21.20L3.88-21.20L10.04-4.32L16.44-21.20L19.68-21.20L25.96-4.24L32.28-21.20Z M56.92-21.40Q60.96-21.40 63.34-19.06Q65.72-16.72 65.72-12.20L65.72-12.20L65.72 0L61.88 0L61.88-11.76Q61.88-14.84 60.40-16.40Q58.92-17.96 56.16-17.96L56.16-17.96Q53.04-17.96 51.24-16.14Q49.44-14.32 49.44-10.92L49.44-10.92L49.44 0L45.60 0L45.60-29.68L49.44-29.68L49.44-18.20Q50.64-19.72 52.58-20.56Q54.52-21.40 56.92-21.40L56.92-21.40Z M98.12-10.48Q98.12-10.04 98.04-9.32L98.04-9.32L80.84-9.32Q81.20-6.52 83.30-4.82Q85.40-3.12 88.52-3.12L88.52-3.12Q92.32-3.12 94.64-5.68L94.64-5.68L96.76-3.20Q95.32-1.52 93.18-0.64Q91.04 0.24 88.40 0.24L88.40 0.24Q85.04 0.24 82.44-1.14Q79.84-2.52 78.42-5Q77.00-7.48 77.00-10.60L77.00-10.60Q77.00-13.68 78.38-16.16Q79.76-18.64 82.18-20.02Q84.60-21.40 87.64-21.40L87.64-21.40Q90.68-21.40 93.06-20.02Q95.44-18.64 96.78-16.16Q98.12-13.68 98.12-10.48L98.12-10.48ZM87.64-18.16Q84.88-18.16 83.02-16.48Q81.16-14.80 80.84-12.08L80.84-12.08L94.44-12.08Q94.12-14.76 92.26-16.46Q90.40-18.16 87.64-18.16L87.64-18.16Z M113.12-17.64Q114.12-19.48 116.08-20.44Q118.04-21.40 120.84-21.40L120.84-21.40L120.84-17.68Q120.52-17.72 119.96-17.72L119.96-17.72Q116.84-17.72 115.06-15.86Q113.28-14 113.28-10.56L113.28-10.56L113.28 0L109.44 0L109.44-21.20L113.12-21.20L113.12-17.64Z M150.52-10.48Q150.52-10.04 150.44-9.32L150.44-9.32L133.24-9.32Q133.60-6.52 135.70-4.82Q137.80-3.12 140.92-3.12L140.92-3.12Q144.72-3.12 147.04-5.68L147.04-5.68L149.16-3.20Q147.72-1.52 145.58-0.64Q143.44 0.24 140.80 0.24L140.80 0.24Q137.44 0.24 134.84-1.14Q132.24-2.52 130.82-5Q129.40-7.48 129.40-10.60L129.40-10.60Q129.40-13.68 130.78-16.16Q132.16-18.64 134.58-20.02Q137-21.40 140.04-21.40L140.04-21.40Q143.08-21.40 145.46-20.02Q147.84-18.64 149.18-16.16Q150.52-13.68 150.52-10.48L150.52-10.48ZM140.04-18.16Q137.28-18.16 135.42-16.48Q133.56-14.80 133.24-12.08L133.24-12.08L146.84-12.08Q146.52-14.76 144.66-16.46Q142.80-18.16 140.04-18.16L140.04-18.16Z M197.76-10.48Q197.76-10.04 197.68-9.32L197.68-9.32L180.48-9.32Q180.84-6.52 182.94-4.82Q185.04-3.12 188.16-3.12L188.16-3.12Q191.96-3.12 194.28-5.68L194.28-5.68L196.40-3.20Q194.96-1.52 192.82-0.64Q190.68 0.24 188.04 0.24L188.04 0.24Q184.68 0.24 182.08-1.14Q179.48-2.52 178.06-5Q176.64-7.48 176.64-10.60L176.64-10.60Q176.64-13.68 178.02-16.16Q179.40-18.64 181.82-20.02Q184.24-21.40 187.28-21.40L187.28-21.40Q190.32-21.40 192.70-20.02Q195.08-18.64 196.42-16.16Q197.76-13.68 197.76-10.48L197.76-10.48ZM187.28-18.16Q184.52-18.16 182.66-16.48Q180.80-14.80 180.48-12.08L180.48-12.08L194.08-12.08Q193.76-14.76 191.90-16.46Q190.04-18.16 187.28-18.16L187.28-18.16Z M226.36 0L222 0L215.88-8.12L209.68 0L205.40 0L213.76-10.84L205.80-21.20L210.08-21.20L215.92-13.56L221.72-21.20L225.92-21.20L217.92-10.84L226.36 0Z M255.00-10.48Q255.00-10.04 254.92-9.32L254.92-9.32L237.72-9.32Q238.08-6.52 240.18-4.82Q242.28-3.12 245.40-3.12L245.40-3.12Q249.20-3.12 251.52-5.68L251.52-5.68L253.64-3.20Q252.20-1.52 250.06-0.64Q247.92 0.24 245.28 0.24L245.28 0.24Q241.92 0.24 239.32-1.14Q236.72-2.52 235.30-5Q233.88-7.48 233.88-10.60L233.88-10.60Q233.88-13.68 235.26-16.16Q236.64-18.64 239.06-20.02Q241.48-21.40 244.52-21.40L244.52-21.40Q247.56-21.40 249.94-20.02Q252.32-18.64 253.66-16.16Q255.00-13.68 255.00-10.48L255.00-10.48ZM244.52-18.16Q241.76-18.16 239.90-16.48Q238.04-14.80 237.72-12.08L237.72-12.08L251.32-12.08Q251.00-14.76 249.14-16.46Q247.28-18.16 244.52-18.16L244.52-18.16Z M275.56 0.24Q272.32 0.24 269.78-1.16Q267.24-2.56 265.80-5.02Q264.36-7.48 264.36-10.60L264.36-10.60Q264.36-13.72 265.80-16.18Q267.24-18.64 269.78-20.02Q272.32-21.40 275.56-21.40L275.56-21.40Q278.44-21.40 280.70-20.24Q282.96-19.08 284.20-16.88L284.20-16.88L281.28-15Q280.28-16.52 278.80-17.28Q277.32-18.04 275.52-18.04L275.52-18.04Q273.44-18.04 271.78-17.12Q270.12-16.20 269.18-14.50Q268.24-12.80 268.24-10.60L268.24-10.60Q268.24-8.36 269.18-6.66Q270.12-4.96 271.78-4.04Q273.44-3.12 275.52-3.12L275.52-3.12Q277.32-3.12 278.80-3.88Q280.28-4.64 281.28-6.16L281.28-6.16L284.20-4.32Q282.96-2.12 280.70-0.94Q278.44 0.24 275.56 0.24L275.56 0.24Z M301.24 0.24Q298.64 0.24 296.24-0.46Q293.84-1.16 292.48-2.24L292.48-2.24L294.08-5.28Q295.48-4.28 297.48-3.68Q299.48-3.08 301.52-3.08L301.52-3.08Q306.56-3.08 306.56-5.96L306.56-5.96Q306.56-6.92 305.88-7.48Q305.20-8.04 304.18-8.30Q303.16-8.56 301.28-8.88L301.28-8.88Q298.72-9.28 297.10-9.80Q295.48-10.32 294.32-11.56Q293.16-12.80 293.16-15.04L293.16-15.04Q293.16-17.92 295.56-19.66Q297.96-21.40 302-21.40L302-21.40Q304.12-21.40 306.24-20.88Q308.36-20.36 309.72-19.48L309.72-19.48L308.08-16.44Q305.48-18.12 301.96-18.12L301.96-18.12Q299.52-18.12 298.24-17.32Q296.96-16.52 296.96-15.20L296.96-15.20Q296.96-14.16 297.68-13.56Q298.40-12.96 299.46-12.68Q300.52-12.40 302.44-12.04L302.44-12.04Q305-11.60 306.58-11.10Q308.16-10.60 309.28-9.40Q310.40-8.20 310.40-6.04L310.40-6.04Q310.40-3.16 307.94-1.46Q305.48 0.24 301.24 0.24L301.24 0.24Z M354.12-29.68L357.96-29.68L357.96 0L354.28 0L354.28-3.36Q353-1.60 351.04-0.68Q349.08 0.24 346.72 0.24L346.72 0.24Q343.64 0.24 341.20-1.12Q338.76-2.48 337.38-4.94Q336-7.40 336-10.60L336-10.60Q336-13.80 337.38-16.24Q338.76-18.68 341.20-20.04Q343.64-21.40 346.72-21.40L346.72-21.40Q349-21.40 350.92-20.54Q352.84-19.68 354.12-18L354.12-18L354.12-29.68ZM347.04-3.12Q349.04-3.12 350.68-4.06Q352.32-5 353.24-6.70Q354.16-8.40 354.16-10.60L354.16-10.60Q354.16-12.80 353.24-14.50Q352.32-16.20 350.68-17.12Q349.04-18.04 347.04-18.04L347.04-18.04Q345-18.04 343.38-17.12Q341.76-16.20 340.82-14.50Q339.88-12.80 339.88-10.60L339.88-10.60Q339.88-8.40 340.82-6.70Q341.76-5 343.38-4.06Q345-3.12 347.04-3.12L347.04-3.12Z M371.24 0L371.24-21.20L375.08-21.20L375.08 0L371.24 0ZM373.16-25.28Q372.04-25.28 371.30-26Q370.56-26.72 370.56-27.76L370.56-27.76Q370.56-28.80 371.30-29.54Q372.04-30.28 373.16-30.28L373.16-30.28Q374.28-30.28 375.02-29.58Q375.76-28.88 375.76-27.84L375.76-27.84Q375.76-26.76 375.02-26.02Q374.28-25.28 373.16-25.28L373.16-25.28Z M394.48 0.24Q391.88 0.24 389.48-0.46Q387.08-1.16 385.72-2.24L385.72-2.24L387.32-5.28Q388.72-4.28 390.72-3.68Q392.72-3.08 394.76-3.08L394.76-3.08Q399.80-3.08 399.80-5.96L399.80-5.96Q399.80-6.92 399.12-7.48Q398.44-8.04 397.42-8.30Q396.40-8.56 394.52-8.88L394.52-8.88Q391.96-9.28 390.34-9.80Q388.72-10.32 387.56-11.56Q386.40-12.80 386.40-15.04L386.40-15.04Q386.40-17.92 388.80-19.66Q391.20-21.40 395.24-21.40L395.24-21.40Q397.36-21.40 399.48-20.88Q401.60-20.36 402.96-19.48L402.96-19.48L401.32-16.44Q398.72-18.12 395.20-18.12L395.20-18.12Q392.76-18.12 391.48-17.32Q390.20-16.52 390.20-15.20L390.20-15.20Q390.20-14.16 390.92-13.56Q391.64-12.96 392.70-12.68Q393.76-12.40 395.68-12.04L395.68-12.04Q398.24-11.60 399.82-11.10Q401.40-10.60 402.52-9.40Q403.64-8.20 403.64-6.04L403.64-6.04Q403.64-3.16 401.18-1.46Q398.72 0.24 394.48 0.24L394.48 0.24Z M423.68 0.24Q420.44 0.24 417.90-1.16Q415.36-2.56 413.92-5.02Q412.48-7.48 412.48-10.60L412.48-10.60Q412.48-13.72 413.92-16.18Q415.36-18.64 417.90-20.02Q420.44-21.40 423.68-21.40L423.68-21.40Q426.56-21.40 428.82-20.24Q431.08-19.08 432.32-16.88L432.32-16.88L429.40-15Q428.40-16.52 426.92-17.28Q425.44-18.04 423.64-18.04L423.64-18.04Q421.56-18.04 419.90-17.12Q418.24-16.20 417.30-14.50Q416.36-12.80 416.36-10.60L416.36-10.60Q416.36-8.36 417.30-6.66Q418.24-4.96 419.90-4.04Q421.56-3.12 423.64-3.12L423.64-3.12Q425.44-3.12 426.92-3.88Q428.40-4.64 429.40-6.16L429.40-6.16L432.32-4.32Q431.08-2.12 428.82-0.94Q426.56 0.24 423.68 0.24L423.68 0.24Z M459.20-21.20L463.04-21.20L463.04 0L459.40 0L459.40-3.20Q458.24-1.56 456.34-0.66Q454.44 0.24 452.20 0.24L452.20 0.24Q447.96 0.24 445.52-2.10Q443.08-4.44 443.08-9L443.08-9L443.08-21.20L446.92-21.20L446.92-9.44Q446.92-6.36 448.40-4.78Q449.88-3.20 452.64-3.20L452.64-3.20Q455.68-3.20 457.44-5.04Q459.20-6.88 459.20-10.24L459.20-10.24L459.20-21.20Z M482.44 0.24Q479.84 0.24 477.44-0.46Q475.04-1.16 473.68-2.24L473.68-2.24L475.28-5.28Q476.68-4.28 478.68-3.68Q480.68-3.08 482.72-3.08L482.72-3.08Q487.76-3.08 487.76-5.96L487.76-5.96Q487.76-6.92 487.08-7.48Q486.40-8.04 485.38-8.30Q484.36-8.56 482.48-8.88L482.48-8.88Q479.92-9.28 478.30-9.80Q476.68-10.32 475.52-11.56Q474.36-12.80 474.36-15.04L474.36-15.04Q474.36-17.92 476.76-19.66Q479.16-21.40 483.20-21.40L483.20-21.40Q485.32-21.40 487.44-20.88Q489.56-20.36 490.92-19.48L490.92-19.48L489.28-16.44Q486.68-18.12 483.16-18.12L483.16-18.12Q480.72-18.12 479.44-17.32Q478.16-16.52 478.16-15.20L478.16-15.20Q478.16-14.16 478.88-13.56Q479.60-12.96 480.66-12.68Q481.72-12.40 483.64-12.04L483.64-12.04Q486.20-11.60 487.78-11.10Q489.36-10.60 490.48-9.40Q491.60-8.20 491.60-6.04L491.60-6.04Q491.60-3.16 489.14-1.46Q486.68 0.24 482.44 0.24L482.44 0.24Z M508.48 0.24Q505.88 0.24 503.48-0.46Q501.08-1.16 499.72-2.24L499.72-2.24L501.32-5.28Q502.72-4.28 504.72-3.68Q506.72-3.08 508.76-3.08L508.76-3.08Q513.80-3.08 513.80-5.96L513.80-5.96Q513.80-6.92 513.12-7.48Q512.44-8.04 511.42-8.30Q510.40-8.56 508.52-8.88L508.52-8.88Q505.96-9.28 504.34-9.80Q502.72-10.32 501.56-11.56Q500.40-12.80 500.40-15.04L500.40-15.04Q500.40-17.92 502.80-19.66Q505.20-21.40 509.24-21.40L509.24-21.40Q511.36-21.40 513.48-20.88Q515.60-20.36 516.96-19.48L516.96-19.48L515.32-16.44Q512.72-18.12 509.20-18.12L509.20-18.12Q506.76-18.12 505.48-17.32Q504.20-16.52 504.20-15.20L504.20-15.20Q504.20-14.16 504.92-13.56Q505.64-12.96 506.70-12.68Q507.76-12.40 509.68-12.04L509.68-12.04Q512.24-11.60 513.82-11.10Q515.40-10.60 516.52-9.40Q517.64-8.20 517.64-6.04L517.64-6.04Q517.64-3.16 515.18-1.46Q512.72 0.24 508.48 0.24L508.48 0.24Z M552.92-21.40Q557.32-21.40 559.66-19.24Q562.00-17.08 562.00-12.80L562.00-12.80L562.00 0L558.36 0L558.36-2.80Q557.40-1.32 555.62-0.54Q553.84 0.24 551.40 0.24L551.40 0.24Q547.84 0.24 545.70-1.48Q543.56-3.20 543.56-6L543.56-6Q543.56-8.80 545.60-10.50Q547.64-12.20 552.08-12.20L552.08-12.20L558.16-12.20L558.16-12.96Q558.16-15.44 556.72-16.76Q555.28-18.08 552.48-18.08L552.48-18.08Q550.60-18.08 548.80-17.46Q547.00-16.84 545.76-15.80L545.76-15.80L544.16-18.68Q545.80-20 548.08-20.70Q550.36-21.40 552.92-21.40L552.92-21.40ZM552.04-2.72Q554.24-2.72 555.84-3.70Q557.44-4.68 558.16-6.48L558.16-6.48L558.16-9.44L552.24-9.44Q547.36-9.44 547.36-6.16L547.36-6.16Q547.36-4.56 548.60-3.64Q549.84-2.72 552.04-2.72L552.04-2.72Z M586.44-21.40Q590.48-21.40 592.86-19.06Q595.24-16.72 595.24-12.20L595.24-12.20L595.24 0L591.40 0L591.40-11.76Q591.40-14.84 589.92-16.40Q588.44-17.96 585.68-17.96L585.68-17.96Q582.56-17.96 580.76-16.14Q578.96-14.32 578.96-10.92L578.96-10.92L578.96 0L575.12 0L575.12-21.20L578.80-21.20L578.80-18Q579.96-19.64 581.94-20.52Q583.92-21.40 586.44-21.40L586.44-21.40Z M624.64-29.68L628.48-29.68L628.48 0L624.80 0L624.80-3.36Q623.52-1.60 621.56-0.68Q619.60 0.24 617.24 0.24L617.24 0.24Q614.16 0.24 611.72-1.12Q609.28-2.48 607.90-4.94Q606.52-7.40 606.52-10.60L606.52-10.60Q606.52-13.80 607.90-16.24Q609.28-18.68 611.72-20.04Q614.16-21.40 617.24-21.40L617.24-21.40Q619.52-21.40 621.44-20.54Q623.36-19.68 624.64-18L624.64-18L624.64-29.68ZM617.56-3.12Q619.56-3.12 621.20-4.06Q622.84-5 623.76-6.70Q624.68-8.40 624.68-10.60L624.68-10.60Q624.68-12.80 623.76-14.50Q622.84-16.20 621.20-17.12Q619.56-18.04 617.56-18.04L617.56-18.04Q615.52-18.04 613.90-17.12Q612.28-16.20 611.34-14.50Q610.40-12.80 610.40-10.60L610.40-10.60Q610.40-8.40 611.34-6.70Q612.28-5 613.90-4.06Q615.52-3.12 617.56-3.12L617.56-3.12Z M664.60 0.24Q662 0.24 659.60-0.46Q657.20-1.16 655.84-2.24L655.84-2.24L657.44-5.28Q658.84-4.28 660.84-3.68Q662.84-3.08 664.88-3.08L664.88-3.08Q669.92-3.08 669.92-5.96L669.92-5.96Q669.92-6.92 669.24-7.48Q668.56-8.04 667.54-8.30Q666.52-8.56 664.64-8.88L664.64-8.88Q662.08-9.28 660.46-9.80Q658.84-10.32 657.68-11.56Q656.52-12.80 656.52-15.04L656.52-15.04Q656.52-17.92 658.92-19.66Q661.32-21.40 665.36-21.40L665.36-21.40Q667.48-21.40 669.60-20.88Q671.72-20.36 673.08-19.48L673.08-19.48L671.44-16.44Q668.84-18.12 665.32-18.12L665.32-18.12Q662.88-18.12 661.60-17.32Q660.32-16.52 660.32-15.20L660.32-15.20Q660.32-14.16 661.04-13.56Q661.76-12.96 662.82-12.68Q663.88-12.40 665.80-12.04L665.80-12.04Q668.36-11.60 669.94-11.10Q671.52-10.60 672.64-9.40Q673.76-8.20 673.76-6.04L673.76-6.04Q673.76-3.16 671.30-1.46Q668.84 0.24 664.60 0.24L664.60 0.24Z M693.64 0.24Q690.48 0.24 687.96-1.16Q685.44-2.56 684.02-5.02Q682.60-7.48 682.60-10.60L682.60-10.60Q682.60-13.72 684.02-16.18Q685.44-18.64 687.96-20.02Q690.48-21.40 693.64-21.40L693.64-21.40Q696.80-21.40 699.30-20.02Q701.80-18.64 703.22-16.18Q704.64-13.72 704.64-10.60L704.64-10.60Q704.64-7.48 703.22-5.02Q701.80-2.56 699.30-1.16Q696.80 0.24 693.64 0.24L693.64 0.24ZM693.64-3.12Q695.68-3.12 697.30-4.06Q698.92-5 699.84-6.70Q700.76-8.40 700.76-10.60L700.76-10.60Q700.76-12.80 699.84-14.50Q698.92-16.20 697.30-17.12Q695.68-18.04 693.64-18.04L693.64-18.04Q691.60-18.04 689.98-17.12Q688.36-16.20 687.42-14.50Q686.48-12.80 686.48-10.60L686.48-10.60Q686.48-8.40 687.42-6.70Q688.36-5 689.98-4.06Q691.60-3.12 693.64-3.12L693.64-3.12Z M715.96 0L715.96-29.68L719.80-29.68L719.80 0L715.96 0Z M748.12-21.20L751.88-21.20L742.60 0L738.68 0L729.40-21.20L733.40-21.20L740.68-4.20L748.12-21.20Z M780.04-10.48Q780.04-10.04 779.96-9.32L779.96-9.32L762.76-9.32Q763.12-6.52 765.22-4.82Q767.32-3.12 770.44-3.12L770.44-3.12Q774.24-3.12 776.56-5.68L776.56-5.68L778.68-3.20Q777.24-1.52 775.10-0.64Q772.96 0.24 770.32 0.24L770.32 0.24Q766.96 0.24 764.36-1.14Q761.76-2.52 760.34-5Q758.92-7.48 758.92-10.60L758.92-10.60Q758.92-13.68 760.30-16.16Q761.68-18.64 764.10-20.02Q766.52-21.40 769.56-21.40L769.56-21.40Q772.60-21.40 774.98-20.02Q777.36-18.64 778.70-16.16Q780.04-13.68 780.04-10.48L780.04-10.48ZM769.56-18.16Q766.80-18.16 764.94-16.48Q763.08-14.80 762.76-12.08L762.76-12.08L776.36-12.08Q776.04-14.76 774.18-16.46Q772.32-18.16 769.56-18.16L769.56-18.16Z M818.84-4L820.04-1.24Q819.20-0.52 817.96-0.14Q816.72 0.24 815.40 0.24L815.40 0.24Q812.20 0.24 810.44-1.48Q808.68-3.20 808.68-6.40L808.68-6.40L808.68-18.04L805.08-18.04L805.08-21.20L808.68-21.20L808.68-25.84L812.52-25.84L812.52-21.20L818.60-21.20L818.60-18.04L812.52-18.04L812.52-6.56Q812.52-4.84 813.38-3.92Q814.24-3 815.84-3L815.84-3Q817.60-3 818.84-4L818.84-4Z M842.00-21.40Q846.04-21.40 848.42-19.06Q850.80-16.72 850.80-12.20L850.80-12.20L850.80 0L846.96 0L846.96-11.76Q846.96-14.84 845.48-16.40Q844.00-17.96 841.24-17.96L841.24-17.96Q838.12-17.96 836.32-16.14Q834.52-14.32 834.52-10.92L834.52-10.92L834.52 0L830.68 0L830.68-29.68L834.52-29.68L834.52-18.20Q835.72-19.72 837.66-20.56Q839.60-21.40 842.00-21.40L842.00-21.40Z M883.20-10.48Q883.20-10.04 883.12-9.32L883.12-9.32L865.92-9.32Q866.28-6.52 868.38-4.82Q870.48-3.12 873.60-3.12L873.60-3.12Q877.40-3.12 879.72-5.68L879.72-5.68L881.84-3.20Q880.40-1.52 878.26-0.64Q876.12 0.24 873.48 0.24L873.48 0.24Q870.12 0.24 867.52-1.14Q864.92-2.52 863.50-5Q862.08-7.48 862.08-10.60L862.08-10.60Q862.08-13.68 863.46-16.16Q864.84-18.64 867.26-20.02Q869.68-21.40 872.72-21.40L872.72-21.40Q875.76-21.40 878.14-20.02Q880.52-18.64 881.86-16.16Q883.20-13.68 883.20-10.48L883.20-10.48ZM872.72-18.16Q869.96-18.16 868.10-16.48Q866.24-14.80 865.92-12.08L865.92-12.08L879.52-12.08Q879.20-14.76 877.34-16.46Q875.48-18.16 872.72-18.16L872.72-18.16Z M894.52 0L894.52-21.20L898.36-21.20L898.36 0L894.52 0ZM896.44-25.28Q895.32-25.28 894.58-26Q893.84-26.72 893.84-27.76L893.84-27.76Q893.84-28.80 894.58-29.54Q895.32-30.28 896.44-30.28L896.44-30.28Q897.56-30.28 898.30-29.58Q899.04-28.88 899.04-27.84L899.04-27.84Q899.04-26.76 898.30-26.02Q897.56-25.28 896.44-25.28L896.44-25.28Z M915.36-17.64Q916.36-19.48 918.32-20.44Q920.28-21.40 923.08-21.40L923.08-21.40L923.08-17.68Q922.76-17.72 922.20-17.72L922.20-17.72Q919.08-17.72 917.30-15.86Q915.52-14 915.52-10.56L915.52-10.56L915.52 0L911.68 0L911.68-21.20L915.36-21.20L915.36-17.64Z M962.08-21.40Q965.16-21.40 967.60-20.04Q970.04-18.68 971.42-16.24Q972.80-13.80 972.80-10.60L972.80-10.60Q972.80-7.40 971.42-4.94Q970.04-2.48 967.60-1.12Q965.16 0.24 962.08 0.24L962.08 0.24Q959.80 0.24 957.90-0.64Q956.00-1.52 954.68-3.20L954.68-3.20L954.68 7.76L950.84 7.76L950.84-21.20L954.52-21.20L954.52-17.84Q955.80-19.60 957.76-20.50Q959.72-21.40 962.08-21.40L962.08-21.40ZM961.76-3.12Q963.80-3.12 965.42-4.06Q967.04-5 967.98-6.70Q968.92-8.40 968.92-10.60L968.92-10.60Q968.92-12.80 967.98-14.50Q967.04-16.20 965.42-17.12Q963.80-18.04 961.76-18.04L961.76-18.04Q959.76-18.04 958.14-17.10Q956.52-16.16 955.58-14.48Q954.64-12.80 954.64-10.60L954.64-10.60Q954.64-8.40 955.56-6.70Q956.48-5 958.12-4.06Q959.76-3.12 961.76-3.12L961.76-3.12Z M987.80-17.64Q988.80-19.48 990.76-20.44Q992.72-21.40 995.52-21.40L995.52-21.40L995.52-17.68Q995.20-17.72 994.64-17.72L994.64-17.72Q991.52-17.72 989.74-15.86Q987.96-14 987.96-10.56L987.96-10.56L987.96 0L984.12 0L984.12-21.20L987.80-21.20L987.80-17.64Z M1015.12 0.24Q1011.96 0.24 1009.44-1.16Q1006.92-2.56 1005.50-5.02Q1004.08-7.48 1004.08-10.60L1004.08-10.60Q1004.08-13.72 1005.50-16.18Q1006.92-18.64 1009.44-20.02Q1011.96-21.40 1015.12-21.40L1015.12-21.40Q1018.28-21.40 1020.78-20.02Q1023.28-18.64 1024.70-16.18Q1026.12-13.72 1026.12-10.60L1026.12-10.60Q1026.12-7.48 1024.70-5.02Q1023.28-2.56 1020.78-1.16Q1018.28 0.24 1015.12 0.24L1015.12 0.24ZM1015.12-3.12Q1017.16-3.12 1018.78-4.06Q1020.40-5 1021.32-6.70Q1022.24-8.40 1022.24-10.60L1022.24-10.60Q1022.24-12.80 1021.32-14.50Q1020.40-16.20 1018.78-17.12Q1017.16-18.04 1015.12-18.04L1015.12-18.04Q1013.08-18.04 1011.46-17.12Q1009.84-16.20 1008.90-14.50Q1007.96-12.80 1007.96-10.60L1007.96-10.60Q1007.96-8.40 1008.90-6.70Q1009.84-5 1011.46-4.06Q1013.08-3.12 1015.12-3.12L1015.12-3.12Z M1048.68-21.40Q1051.76-21.40 1054.20-20.04Q1056.64-18.68 1058.02-16.24Q1059.40-13.80 1059.40-10.60L1059.40-10.60Q1059.40-7.40 1058.02-4.94Q1056.64-2.48 1054.20-1.12Q1051.76 0.24 1048.68 0.24L1048.68 0.24Q1046.32 0.24 1044.36-0.68Q1042.40-1.60 1041.12-3.36L1041.12-3.36L1041.12 0L1037.44 0L1037.44-29.68L1041.28-29.68L1041.28-18Q1042.56-19.68 1044.48-20.54Q1046.40-21.40 1048.68-21.40L1048.68-21.40ZM1048.36-3.12Q1050.40-3.12 1052.02-4.06Q1053.64-5 1054.58-6.70Q1055.52-8.40 1055.52-10.60L1055.52-10.60Q1055.52-12.80 1054.58-14.50Q1053.64-16.20 1052.02-17.12Q1050.40-18.04 1048.36-18.04L1048.36-18.04Q1046.36-18.04 1044.72-17.12Q1043.08-16.20 1042.16-14.50Q1041.24-12.80 1041.24-10.60L1041.24-10.60Q1041.24-8.40 1042.16-6.70Q1043.08-5 1044.72-4.06Q1046.36-3.12 1048.36-3.12L1048.36-3.12Z M1070.72 0L1070.72-29.68L1074.56-29.68L1074.56 0L1070.72 0Z M1107.04-10.48Q1107.04-10.04 1106.96-9.32L1106.96-9.32L1089.76-9.32Q1090.12-6.52 1092.22-4.82Q1094.32-3.12 1097.44-3.12L1097.44-3.12Q1101.24-3.12 1103.56-5.68L1103.56-5.68L1105.68-3.20Q1104.24-1.52 1102.10-0.64Q1099.96 0.24 1097.32 0.24L1097.32 0.24Q1093.96 0.24 1091.36-1.14Q1088.76-2.52 1087.34-5Q1085.92-7.48 1085.92-10.60L1085.92-10.60Q1085.92-13.68 1087.30-16.16Q1088.68-18.64 1091.10-20.02Q1093.52-21.40 1096.56-21.40L1096.56-21.40Q1099.60-21.40 1101.98-20.02Q1104.36-18.64 1105.70-16.16Q1107.04-13.68 1107.04-10.48L1107.04-10.48ZM1096.56-18.16Q1093.80-18.16 1091.94-16.48Q1090.08-14.80 1089.76-12.08L1089.76-12.08L1103.36-12.08Q1103.04-14.76 1101.18-16.46Q1099.32-18.16 1096.56-18.16L1096.56-18.16Z M1144.88-21.40Q1148.88-21.40 1151.22-19.08Q1153.56-16.76 1153.56-12.20L1153.56-12.20L1153.56 0L1149.72 0L1149.72-11.76Q1149.72-14.84 1148.30-16.40Q1146.88-17.96 1144.24-17.96L1144.24-17.96Q1141.32-17.96 1139.60-16.14Q1137.88-14.32 1137.88-10.92L1137.88-10.92L1137.88 0L1134.04 0L1134.04-11.76Q1134.04-14.84 1132.62-16.40Q1131.20-17.96 1128.56-17.96L1128.56-17.96Q1125.64-17.96 1123.92-16.14Q1122.20-14.32 1122.20-10.92L1122.20-10.92L1122.20 0L1118.36 0L1118.36-21.20L1122.04-21.20L1122.04-18.04Q1123.20-19.68 1125.08-20.54Q1126.96-21.40 1129.36-21.40L1129.36-21.40Q1131.84-21.40 1133.76-20.40Q1135.68-19.40 1136.72-17.48L1136.72-17.48Q1137.92-19.32 1140.06-20.36Q1142.20-21.40 1144.88-21.40L1144.88-21.40Z M1172.72 0.24Q1170.12 0.24 1167.72-0.46Q1165.32-1.16 1163.96-2.24L1163.96-2.24L1165.56-5.28Q1166.96-4.28 1168.96-3.68Q1170.96-3.08 1173.00-3.08L1173.00-3.08Q1178.04-3.08 1178.04-5.96L1178.04-5.96Q1178.04-6.92 1177.36-7.48Q1176.68-8.04 1175.66-8.30Q1174.64-8.56 1172.76-8.88L1172.76-8.88Q1170.20-9.28 1168.58-9.80Q1166.96-10.32 1165.80-11.56Q1164.64-12.80 1164.64-15.04L1164.64-15.04Q1164.64-17.92 1167.04-19.66Q1169.44-21.40 1173.48-21.40L1173.48-21.40Q1175.60-21.40 1177.72-20.88Q1179.84-20.36 1181.20-19.48L1181.20-19.48L1179.56-16.44Q1176.96-18.12 1173.44-18.12L1173.44-18.12Q1171.00-18.12 1169.72-17.32Q1168.44-16.52 1168.44-15.20L1168.44-15.20Q1168.44-14.16 1169.16-13.56Q1169.88-12.96 1170.94-12.68Q1172.00-12.40 1173.92-12.04L1173.92-12.04Q1176.48-11.60 1178.06-11.10Q1179.64-10.60 1180.76-9.40Q1181.88-8.20 1181.88-6.04L1181.88-6.04Q1181.88-3.16 1179.42-1.46Q1176.96 0.24 1172.72 0.24L1172.72 0.24Z"/></g>
</svg>
</g><g opacity="1" transform="rotate(0 620.0813 410.4756)">
<svg width="289.8375" height="50.971" x="620.0813" y="410.4756" version="1.1" preserveAspectRatio="none" viewBox="1.68 -25 144.88 25.48">
  <g transform="matrix(1 0 0 1 0 0)" class="companyName"><path d="M18.80-5.84Q18.80-5.96 19.04-5.94Q19.28-5.92 19.28-5.80L19.28-5.80Q18.92-3.28 18.92-0.60L18.92-0.60Q18.92-0.28 18.78-0.14Q18.64 0 18.28 0L18.28 0L1.76 0Q1.68 0 1.68-0.24Q1.68-0.48 1.76-0.48L1.76-0.48Q3.32-0.48 4.06-0.68Q4.80-0.88 5.06-1.46Q5.32-2.04 5.32-3.24L5.32-3.24L5.32-21.76Q5.32-22.96 5.06-23.52Q4.80-24.08 4.06-24.30Q3.32-24.52 1.76-24.52L1.76-24.52Q1.68-24.52 1.68-24.76Q1.68-25 1.76-25L1.76-25L17.60-25Q17.96-25 17.96-24.64L17.96-24.64L18.04-19.80Q18.04-19.68 17.82-19.68Q17.60-19.68 17.60-19.80L17.60-19.80Q17.60-21.84 16.52-23.04Q15.44-24.24 13.68-24.24L13.68-24.24L10.92-24.24Q9.40-24.24 8.68-24.04Q7.96-23.84 7.70-23.28Q7.44-22.72 7.44-21.52L7.44-21.52L7.44-13.40L12.72-13.40Q14.56-13.40 15.28-14.02Q16-14.64 16-16.16L16-16.16Q16-16.24 16.24-16.24Q16.48-16.24 16.48-16.16L16.48-16.16L16.44-13Q16.44-11.84 16.48-11.28L16.48-11.28L16.52-9.40Q16.52-9.32 16.28-9.32Q16.04-9.32 16.04-9.40L16.04-9.40Q16.04-11.20 15.28-11.92Q14.52-12.64 12.60-12.64L12.60-12.64L7.44-12.64L7.44-3.40Q7.44-2.24 7.70-1.70Q7.96-1.16 8.66-0.96Q9.36-0.76 10.92-0.76L10.92-0.76L14.60-0.76Q16.20-0.76 17.34-2.16Q18.48-3.56 18.80-5.84L18.80-5.84Z M40.52-0.48Q40.60-0.48 40.60-0.24Q40.60 0 40.52 0L40.52 0L39.24-0.04Q38.84-0.08 38.04-0.08L38.04-0.08L35.52-0.04Q34.96 0 34 0L34 0Q33.88 0 33.88-0.24Q33.88-0.48 34-0.48L34-0.48Q34.80-0.48 35.14-0.58Q35.48-0.68 35.48-0.92L35.48-0.92Q35.48-1.24 34.92-2.04L34.92-2.04L30.68-8.40L27-3Q26.20-1.88 26.20-1.36L26.20-1.36Q26.20-0.48 28.60-0.48L28.60-0.48Q28.72-0.48 28.72-0.24Q28.72 0 28.60 0L28.60 0Q27.52 0 27-0.04L27-0.04L24.60-0.08L23.20-0.04Q22.80 0 21.96 0L21.96 0Q21.88 0 21.88-0.24Q21.88-0.48 21.96-0.48L21.96-0.48Q22.96-0.48 24.14-1.18Q25.32-1.88 26.28-3.24L26.28-3.24L30.32-8.92L26-15.40Q25-16.92 23.92-17.58Q22.84-18.24 21.92-18.24L21.92-18.24Q21.84-18.24 21.84-18.48Q21.84-18.72 21.92-18.72L21.92-18.72L23.16-18.68Q24.04-18.60 24.40-18.60L24.40-18.60Q25.44-18.60 26.88-18.68L26.88-18.68L28.44-18.72Q28.52-18.72 28.52-18.48Q28.52-18.24 28.44-18.24L28.44-18.24Q27.60-18.24 27.28-18.14Q26.96-18.04 26.96-17.76L26.96-17.76Q26.96-17.40 27.48-16.64L27.48-16.64L31.56-10.60L35.04-15.72Q35.84-16.92 35.84-17.40L35.84-17.40Q35.84-17.84 35.26-18.04Q34.68-18.24 33.40-18.24L33.40-18.24Q33.28-18.24 33.28-18.48Q33.28-18.72 33.40-18.72L33.40-18.72L35-18.68Q36.36-18.60 37.40-18.60L37.40-18.60Q38-18.60 38.80-18.68L38.80-18.68L40.04-18.72Q40.12-18.72 40.12-18.48Q40.12-18.24 40.04-18.24L40.04-18.24Q39-18.24 37.86-17.56Q36.72-16.88 35.72-15.48L35.72-15.48L31.88-10.12L36.44-3.32Q37.44-1.80 38.52-1.14Q39.60-0.48 40.52-0.48L40.52-0.48Z M57.52-5.32Q57.52-5.44 57.74-5.44Q57.96-5.44 57.96-5.32L57.96-5.32Q57.68-2.44 57.68-0.60L57.68-0.60Q57.68-0.28 57.56-0.14Q57.44 0 57.08 0L57.08 0L42.52 0Q42.44 0 42.44-0.24Q42.44-0.48 42.52-0.48L42.52-0.48Q43.88-0.48 44.52-0.68Q45.16-0.88 45.38-1.46Q45.60-2.04 45.60-3.24L45.60-3.24L45.60-15.48Q45.60-16.68 45.38-17.24Q45.16-17.80 44.52-18.02Q43.88-18.24 42.52-18.24L42.52-18.24Q42.44-18.24 42.44-18.48Q42.44-18.72 42.52-18.72L42.52-18.72L56.36-18.72Q56.76-18.72 56.76-18.40L56.76-18.40L56.80-15.92Q56.84-15.16 56.84-14L56.84-14Q56.84-13.88 56.60-13.88Q56.36-13.88 56.36-14L56.36-14Q56.36-15.88 55.28-17.04Q54.20-18.20 52.44-18.20L52.44-18.20L51.08-18.20Q49.56-18.20 48.86-17.98Q48.16-17.76 47.90-17.20Q47.64-16.64 47.64-15.44L47.64-15.44L47.64-9.96Q51.72-10 53.16-10.16Q54.60-10.32 54.76-10.32L54.76-10.32Q54.96-10.32 54.96-9.48L54.96-9.48Q54.96-8.60 54.76-8.60L54.76-8.60Q54.60-8.60 53.16-8.84Q51.72-9.08 47.64-9.12L47.64-9.12L47.64-3.40Q47.64-2.24 47.90-1.66Q48.16-1.08 48.88-0.86Q49.60-0.64 51.08-0.64L51.08-0.64L53.40-0.64Q54.96-0.64 56.08-1.94Q57.20-3.24 57.52-5.32L57.52-5.32Z M72.12-19.20Q73.64-19.20 75.38-18.90Q77.12-18.60 78.20-18.04L78.20-18.04Q78.48-17.92 78.56-17.80Q78.64-17.68 78.68-17.36L78.68-17.36L79.12-13.24Q79.12-13.12 78.90-13.08Q78.68-13.04 78.64-13.20L78.64-13.20Q78.08-16 76.14-17.34Q74.20-18.68 71.20-18.68L71.20-18.68Q69.04-18.68 67.28-17.56Q65.52-16.44 64.52-14.46Q63.52-12.48 63.52-10.04L63.52-10.04Q63.52-7.52 64.52-5.22Q65.52-2.92 67.52-1.46Q69.52 0 72.32 0L72.32 0Q74.84 0 76.60-1.38Q78.36-2.76 79-5.60L79-5.60Q79-5.72 79.20-5.72L79.20-5.72Q79.28-5.72 79.38-5.66Q79.48-5.60 79.48-5.56L79.48-5.56L78.92-1.32Q78.88-1 78.80-0.88Q78.72-0.76 78.36-0.60L78.36-0.60Q75.28 0.48 71.96 0.48L71.96 0.48Q68.20 0.48 65.76-1.04Q63.32-2.56 62.22-4.84Q61.12-7.12 61.12-9.44L61.12-9.44Q61.12-12.16 62.56-14.40Q64-16.64 66.52-17.92Q69.04-19.20 72.12-19.20L72.12-19.20Z M109.96-18.72Q110.08-18.72 110.08-18.48Q110.08-18.24 109.96-18.24L109.96-18.24Q108.80-18.24 108.02-17.66Q107.24-17.08 106.60-15.48L106.60-15.48L100.48-0.04Q100.44 0.12 100.04 0.12L100.04 0.12Q99.68 0.12 99.56-0.04L99.56-0.04L95.64-8.40L92.32-0.04Q92.28 0.12 91.88 0.12L91.88 0.12Q91.48 0.12 91.44-0.04L91.44-0.04L84.20-15.40Q83.40-17.08 82.80-17.66Q82.20-18.24 81.16-18.24L81.16-18.24Q81.04-18.24 81.04-18.48Q81.04-18.72 81.16-18.72L81.16-18.72L82.64-18.68Q83.60-18.60 84.08-18.60L84.08-18.60Q84.80-18.60 85.84-18.68L85.84-18.68L87.00-18.72Q87.08-18.72 87.08-18.48Q87.08-18.24 87.00-18.24L87.00-18.24Q86.52-18.24 86.18-17.96Q85.84-17.68 85.84-17.12L85.84-17.12Q85.84-16.64 86.20-15.80L86.20-15.80L92.68-2.44L95.24-9.24L92.32-15.40Q91.48-17.16 91.00-17.70Q90.52-18.24 89.52-18.24L89.52-18.24Q89.44-18.24 89.44-18.48Q89.44-18.72 89.52-18.72L89.52-18.72L90.84-18.68Q91.80-18.60 92.24-18.60L92.24-18.60Q92.88-18.60 93.76-18.68L93.76-18.68L94.68-18.72Q94.76-18.72 94.76-18.48Q94.76-18.24 94.68-18.24L94.68-18.24Q94.04-18.24 93.82-18.16Q93.60-18.08 93.60-17.80L93.60-17.80Q93.60-17.36 94.32-15.80L94.32-15.80L96.36-11.60L97.88-15.72Q98.36-16.92 98.36-17.48L98.36-17.48Q98.36-17.88 98.10-18.06Q97.84-18.24 97.28-18.24L97.28-18.24Q97.20-18.24 97.20-18.48Q97.20-18.72 97.28-18.72L97.28-18.72Q97.64-18.72 98.10-18.66Q98.56-18.60 98.96-18.60L98.96-18.60Q99.64-18.60 100.60-18.68L100.60-18.68L102.04-18.72Q102.16-18.72 102.16-18.48Q102.16-18.24 102.04-18.24L102.04-18.24Q100.88-18.24 100.10-17.66Q99.32-17.08 98.68-15.48L98.68-15.48L96.80-10.68L100.80-2.44L105.80-15.72Q106.08-16.40 106.08-16.96L106.08-16.96Q106.08-18.24 104.24-18.24L104.24-18.24Q104.16-18.24 104.16-18.48Q104.16-18.72 104.24-18.72L104.24-18.72L105.36-18.68Q106.16-18.60 106.88-18.60L106.88-18.60Q107.56-18.60 108.52-18.68L108.52-18.68L109.96-18.72Z M126.28-5.32Q126.28-5.44 126.50-5.44Q126.72-5.44 126.72-5.32L126.72-5.32Q126.44-2.44 126.44-0.60L126.44-0.60Q126.44-0.28 126.32-0.14Q126.20 0 125.84 0L125.84 0L111.28 0Q111.20 0 111.20-0.24Q111.20-0.48 111.28-0.48L111.28-0.48Q112.64-0.48 113.28-0.68Q113.92-0.88 114.14-1.46Q114.36-2.04 114.36-3.24L114.36-3.24L114.36-15.48Q114.36-16.68 114.14-17.24Q113.92-17.80 113.28-18.02Q112.64-18.24 111.28-18.24L111.28-18.24Q111.20-18.24 111.20-18.48Q111.20-18.72 111.28-18.72L111.28-18.72L125.12-18.72Q125.52-18.72 125.52-18.40L125.52-18.40L125.56-15.92Q125.60-15.16 125.60-14L125.60-14Q125.60-13.88 125.36-13.88Q125.12-13.88 125.12-14L125.12-14Q125.12-15.88 124.04-17.04Q122.96-18.20 121.20-18.20L121.20-18.20L119.84-18.20Q118.32-18.20 117.62-17.98Q116.92-17.76 116.66-17.20Q116.40-16.64 116.40-15.44L116.40-15.44L116.40-9.96Q120.48-10 121.92-10.16Q123.36-10.32 123.52-10.32L123.52-10.32Q123.72-10.32 123.72-9.48L123.72-9.48Q123.72-8.60 123.52-8.60L123.52-8.60Q123.36-8.60 121.92-8.84Q120.48-9.08 116.40-9.12L116.40-9.12L116.40-3.40Q116.40-2.24 116.66-1.66Q116.92-1.08 117.64-0.86Q118.36-0.64 119.84-0.64L119.84-0.64L122.16-0.64Q123.72-0.64 124.84-1.94Q125.96-3.24 126.28-5.32L126.28-5.32Z M140.68-10.40Q143.48-10.16 145.02-8.98Q146.56-7.80 146.56-5.68L146.56-5.68Q146.56-3.08 144.50-1.46Q142.44 0.16 139.20 0.16L139.20 0.16Q138.20 0.16 136.80 0.04L136.80 0.04Q136.28 0 135.54-0.04Q134.80-0.08 133.92-0.08L133.92-0.08L131.64-0.04Q130.96 0 129.84 0L129.84 0Q129.76 0 129.76-0.24Q129.76-0.48 129.84-0.48L129.84-0.48Q131.24-0.48 131.88-0.68Q132.52-0.88 132.76-1.46Q133-2.04 133-3.24L133-3.24L133-15.48Q133-16.68 132.76-17.24Q132.52-17.80 131.88-18.02Q131.24-18.24 129.88-18.24L129.88-18.24Q129.80-18.24 129.80-18.48Q129.80-18.72 129.88-18.72L129.88-18.72L131.64-18.68Q133.08-18.60 133.92-18.60L133.92-18.60Q134.92-18.60 136-18.72L136-18.72Q136.40-18.76 136.98-18.80Q137.56-18.84 138.36-18.84L138.36-18.84Q141.20-18.84 142.80-17.78Q144.40-16.72 144.40-14.84L144.40-14.84Q144.40-13.32 143.38-12.14Q142.36-10.96 140.68-10.40L140.68-10.40ZM137.32-18.32Q136.36-18.32 135.88-18.10Q135.40-17.88 135.20-17.26Q135-16.64 135-15.40L135-15.40L135-10.36Q135.36-10.32 136.04-10.32L136.04-10.32Q138.28-10.32 139.54-10.54Q140.80-10.76 141.52-11.58Q142.24-12.40 142.24-14.08L142.24-14.08Q142.24-16.28 141-17.30Q139.76-18.32 137.32-18.32L137.32-18.32ZM138.52-0.48Q144.32-0.48 144.32-4.76L144.32-4.76Q144.32-7.04 142.60-8.36Q140.88-9.68 137.28-9.68L137.28-9.68Q135.76-9.68 135-9.60L135-9.60L135-3.24Q135-1.72 135.72-1.10Q136.44-0.48 138.52-0.48L138.52-0.48Z"/></g>
</svg>
</g></svg>